<svg xmlns="http://www.w3.org/2000/svg" width="1200" height="700" viewBox="0 0 1200 700" role="img" aria-label="Dashboard placeholder">
  <rect width="100%" height="100%" fill="#0b1220"/>
  <rect x="40" y="40" width="1120" height="80" rx="12" fill="#0f172a" stroke="#1e293b"/>
  <text x="60" y="92" font-family="Inter, Arial" font-size="28" fill="#e2e8f0">AI-Assisted Code Reviewer – Dashboard (Placeholder)</text>

  <rect x="40" y="140" width="560" height="480" rx="12" fill="#0f172a" stroke="#334155"/>
  <text x="60" y="180" font-family="Inter, Arial" font-size="20" fill="#94a3b8">Input</text>
  <rect x="60" y="200" width="520" height="400" rx="8" fill="#0b1220" stroke="#1e293b"/>

  <rect x="620" y="140" width="540" height="480" rx="12" fill="#0f172a" stroke="#334155"/>
  <text x="640" y="180" font-family="Inter, Arial" font-size="20" fill="#94a3b8">Results</text>
  <rect x="640" y="200" width="500" height="90" rx="8" fill="#0b1220" stroke="#1e293b"/>
  <text x="660" y="245" font-family="Inter, Arial" font-size="16" fill="#e2e8f0">Summary: Processes application logic (placeholder)</text>

  <rect x="640" y="310" width="500" height="140" rx="8" fill="#0b1220" stroke="#1e293b"/>
  <circle cx="660" cy="340" r="8" fill="#ef4444"/>
  <text x="680" y="345" font-family="Inter, Arial" font-size="16" fill="#e2e8f0">Error: Potentially unsafe SQL without WHERE</text>
  <circle cx="660" cy="370" r="8" fill="#f59e0b"/>
  <text x="680" y="375" font-family="Inter, Arial" font-size="16" fill="#e2e8f0">Warning: Deep nesting detected</text>
  <circle cx="660" cy="400" r="8" fill="#22c55e"/>
  <text x="680" y="405" font-family="Inter, Arial" font-size="16" fill="#e2e8f0">Info: Consider extracting constants</text>

  <rect x="640" y="470" width="500" height="150" rx="8" fill="#0b1220" stroke="#1e293b"/>
  <text x="660" y="500" font-family="Inter, Arial" font-size="16" fill="#e2e8f0">Beautified Code (collapsed)…</text>
</svg>
